<svg width="44" height="44" viewBox="0 0 44 44" fill="none" xmlns="http://www.w3.org/2000/svg">
<path d="M22.0001 0.0915527C9.84992 0.0915527 0 9.94147 0 22.0917C0 32.989 7.93148 42.0138 18.3309 43.7614V26.6815H13.0239V20.5352H18.3309V16.0031C18.3309 10.7445 21.5427 7.87895 26.2343 7.87895C28.4814 7.87895 30.4124 8.04639 30.973 8.12014V13.6167L27.719 13.6183C25.1681 13.6183 24.6762 14.8302 24.6762 16.6093V20.532H30.763L29.9691 26.6784H24.6762V43.9084C35.5612 42.5836 44 33.3289 44 22.0854C44 9.94147 34.1501 0.0915527 22.0001 0.0915527Z" fill="#BDB9AD"/>
</svg>
