<svg width="91" height="91" viewBox="0 0 91 91" fill="none" xmlns="http://www.w3.org/2000/svg">
<path d="M49.0801 57H44V37.418L37.9355 39.2988V35.168L48.5352 31.3711H49.0801V57Z" fill="white"/>
<path d="M1.44338 48C0.550211 46.453 0.55021 44.547 1.44337 43L21.3066 8.59585C22.1998 7.04885 23.8504 6.09585 25.6367 6.09585L65.3633 6.09585C67.1496 6.09585 68.8002 7.04885 69.6934 8.59585L89.5566 43C90.4498 44.547 90.4498 46.453 89.5566 48L69.6934 82.4042C68.8002 83.9512 67.1496 84.9042 65.3633 84.9042L25.6368 84.9042C23.8504 84.9042 22.1998 83.9512 21.3066 82.4042L1.44338 48Z" fill="#FFC52F"/>
</svg>
